Coordinates
version=1
nRows=12
nColumns=24
inDegrees=yes

Units are S.I. units (second, meters, Newtons, ...)
Angles are in degrees.

endheader
time	pelvis_tilt	pelvis_list	pelvis_rotation	pelvis_tx	pelvis_ty	pelvis_tz	hip_flexion_r	hip_adduction_r	hip_rotation_r	knee_angle_r	ankle_angle_r	subtalar_angle_r	mtp_angle_r	hip_flexion_l	hip_adduction_l	hip_rotation_l	knee_angle_l	ankle_angle_l	subtalar_angle_l	mtp_angle_l	lumbar_extension	lumbar_bending	lumbar_rotation
      1.70366667	      0.79943406	     10.53245659	     -6.58872341	      1.34667266	      1.00073195	      0.26891757	     12.19047509	    -14.51671467	      1.49558291	    -68.00954694	     -6.09461033	    -10.48281690	      4.41166550	     10.44245561	     15.58618921	      4.78286704	    -17.32223072	      3.61702342	    -21.35274318	     -4.25850070	    -12.56881439	     -5.92061865	      1.89632105
      1.70783333	      0.86411842	     10.34024784	     -6.42140489	      1.35159557	      1.00186178	      0.26860195	     12.65781129	    -14.22438594	      1.53049763	    -67.76817597	     -4.87285595	    -10.00771519	      4.44300289	      9.75835248	     15.46573649	      5.16967745	    -16.84094582	      3.60094393	    -21.44370401	     -4.24263007	    -12.67027191	     -5.61849086	      1.54995952
      1.71200000	      0.92354723	     10.16135531	     -6.27141603	      1.35648245	      1.00293988	      0.26830551	     13.13597115	    -13.94644227	      1.58233953	    -67.49201174	     -3.68538476	     -9.55200189	      4.46303135	      9.08324842	     15.34965964	      5.53878219	    -16.34565220	      3.56643818	    -21.53859139	     -4.22796435	    -12.76549637	     -5.33501931	      1.21848554
      1.71616667	      0.98771713	      9.97098323	     -6.13062587	      1.36138513	      1.00400202	      0.26802470	     13.59617175	    -13.65755851	      1.63750170	    -67.16286671	     -2.56927652	     -9.08418654	      4.47777033	      8.40146088	     15.21321849	      5.89032196	    -15.85163934	      3.57723237	    -21.59501673	     -4.22016091	    -12.85423226	     -5.03470563	      0.93717122
      1.72033333	      1.06908173	      9.81070804	     -5.99207308	      1.36626792	      1.00502055	      0.26774647	     14.04064558	    -13.40923429	      1.68959433	    -66.80828466	     -1.46980877	     -8.70980608	      4.46631010	      7.70102987	     15.10782836	      6.26008130	    -15.33343296	      3.48098372	    -21.75632635	     -4.21200396	    -12.97273944	     -4.77182224	      0.57553207
      1.72450000	      1.13676784	      9.64537996	     -5.85401670	      1.37115541	      1.00597882	      0.26747864	     14.49317555	    -13.15397108	      1.74301062	    -66.41606961	     -0.45205664	     -8.34470986	      4.44574788	      7.02029818	     14.98721620	      6.60681700	    -14.83226181	      3.44413750	    -21.84884633	     -4.20567683	    -13.06921850	     -4.50806457	      0.27503662
      1.72866667	      1.20225480	      9.46235347	     -5.72219837	      1.37600840	      1.00690834	      0.26723138	     14.93156883	    -12.87638128	      1.80155685	    -65.96746327	      0.49954527	     -7.98859628	      4.43434163	      6.35027856	     14.83673341	      6.91916216	    -14.33326037	      3.44854295	    -21.88134195	     -4.20192036	    -13.16360930	     -4.22711949	      0.03059582
      1.73283333	      1.26503594	      9.31360159	     -5.59482629	      1.38087879	      1.00775520	      0.26700112	     15.37952899	    -12.63679542	      1.86903339	    -65.50311229	      1.42441114	     -7.73314506	      4.38858605	      5.67883792	     14.72049848	      7.25526102	    -13.82101072	      3.35965353	    -22.01276460	     -4.20081045	    -13.25433461	     -3.99319534	     -0.28991532
      1.73700000	      1.33324869	      9.15974687	     -5.48083837	      1.38574132	      1.00856650	      0.26678060	     15.81296169	    -12.39891327	      1.93561013	    -64.99300442	      2.27591707	     -7.44267120	      4.35870283	      5.01490625	     14.59081876	      7.54179923	    -13.32791938	      3.35725193	    -22.06117375	     -4.19843340	    -13.34448665	     -3.74188416	     -0.52190696
      1.74116667	      1.35964131	      8.98547124	     -5.35171612	      1.39048925	      1.00927473	      0.26659105	     16.28564265	    -12.11638169	      2.01446941	    -64.45197367	      3.05461937	     -7.31589253	      4.33966580	      4.43377669	     14.42730862	      7.78937728	    -12.90964271	      3.34627507	    -22.06354332	     -4.19872494	    -13.42280968	     -3.49509016	     -0.70550312
      1.74533333	      1.45284947	      8.85345511	     -5.24282269	      1.39536862	      1.01002703	      0.26638500	     16.67120314	    -11.91327129	      2.07665416	    -63.86607504	      3.79024595	     -7.10063514	      4.29077388	      3.73002936	     14.31576209	      8.09885821	    -12.38068491	      3.30750370	    -22.16293545	     -4.19990727	    -13.52559173	     -3.25962529	     -1.03940460
      1.74950000	      1.50654958	      8.72654905	     -5.11892964	      1.40018109	      1.01065633	      0.26619071	     17.09606909	    -11.70692009	      2.14022623	    -63.25721426	      4.48605333	     -6.99495437	      4.23152888	      3.10266439	     14.20053690	      8.38699005	    -11.90934286	      3.25890377	    -22.24121459	     -4.20155547	    -13.60246906	     -3.04620278	     -1.30094985
